<?xml version="1.0" encoding="utf-8"?>
<!-- Generator: Adobe Illustrator 18.0.0, SVG Export Plug-In . SVG Version: 6.00 Build 0)  -->
<!DOCTYPE svg PUBLIC "-//W3C//DTD SVG 1.1//EN" "http://www.w3.org/Graphics/SVG/1.1/DTD/svg11.dtd">
<svg version="1.1" id="Layer_1" xmlns="http://www.w3.org/2000/svg" xmlns:xlink="http://www.w3.org/1999/xlink" x="0px" y="0px"
	 viewBox="0 0 465 160" enable-background="new 0 0 465 160" xml:space="preserve">
<path fill="#FCFCFA" d="M135.7,86.9h-17.8l5.3-14.5h17.8L135.7,86.9z M335.4,39.8v86.6h14c2.4,0,4.6-0.1,6.4-1.1l3.5-2v14h-37.1
	c1-1.4,1.7-3.1,2-5.1c0.1-0.5,0.1-1.3,0.2-2.1c0.1-0.9,0.1-1.8,0.1-2.7V20.1c0-2-0.1-3.6-0.3-4.7c-0.4-2-1-3.7-2-5.1l28.7-0.3v14
	c-1.8-1.1-3.3-1.9-4.6-2.4c-1.3-0.5-3.1-0.8-5.3-0.7l-5.6,0.3v7.7h25v14c-1-0.6-1.7-1.1-2.4-1.4c-0.6-0.3-1.3-0.7-2-0.9
	c-1.4-0.5-3.3-0.7-5.5-0.7C350.4,39.8,335.4,39.8,335.4,39.8z M309.5,23.5c0-0.8-0.3-1.4-0.8-2c-0.5-0.5-1.2-0.8-1.9-0.8h-19.7v7.2
	h19.7c0.7,0,1.4-0.3,1.9-0.8C309.3,26.7,309.5,24.3,309.5,23.5L309.5,23.5z M318.6,24c0,1-0.1,1.9-0.2,2.8c-0.2,0.9-0.5,1.9-0.9,2.9
	c-0.5,1-1,1.9-1.6,2.7c-0.6,0.8-1.2,1.5-1.9,2.1c-1.6,1.4-3.4,2.4-5.5,2.8c-0.7,0.1-1.6,0.2-2.8,0.2h-18.5v87.9c0,0.9,0,1.8,0.1,2.6
	c0,0.8,0.1,1.5,0.2,2.1c0.3,1.9,1,3.6,1.9,5.3h-15.4c1-1.4,1.7-3.1,2-5.1c0.1-0.6,0.1-1.3,0.2-2.1c0.1-0.9,0.1-1.8,0.1-2.7V19.8
	c0-2-0.1-3.6-0.3-4.7c-0.3-2-1-3.7-2-5.1h31.7c1.7,0,3.5,0.4,5.4,1.1s3.4,1.7,4.5,2.9c1.1,1.2,1.8,2.6,2.3,4.2
	C318.4,19.7,318.6,22.5,318.6,24L318.6,24z M199.1,39.5v62.9h5.5c2.4,0,4.6-0.1,6.4-1.1l3.5-2v14h-28.7c1-1.4,1.7-3.1,2-5.1
	c0.1-0.5,0.1-1.3,0.2-2.1c0.1-0.9,0.1-1.8,0.1-2.7V19.8c0-2-0.1-3.6-0.3-4.7c-0.3-2-1-3.7-2-5.1h27.5v14c-1.8-1.1-3.3-1.9-4.6-2.4
	c-1.3-0.5-3.1-0.7-5.3-0.7h-4.3v7.7h21.8v14c-0.9-0.6-1.7-1.1-2.4-1.4c-0.6-0.3-1.3-0.7-2-0.9c-1.4-0.5-3.3-0.7-5.5-0.7L199.1,39.5
	L199.1,39.5z M61.7,137.3H36.6h-27c1-1.4,1.7-3.1,2-5.1c0.1-0.5,0.1-1.3,0.2-2.1c0.1-0.9,0.1-1.8,0.1-2.7V19.8c0-2-0.1-3.6-0.3-4.7
	c-0.3-2-1-3.7-2-5.1h16.3c-2,3.6-3,6.9-3,9.9v106.6h29.2c2.9,0,6.2-1,9.9-3.1V137.3z M46.1,39.5v62.9h5.5c2.4,0,4.6-0.1,6.4-1.1
	l3.5-2v14H32.8c1-1.4,1.7-3.1,2-5.1c0.1-0.5,0.1-1.3,0.2-2.1c0.1-0.9,0.1-1.8,0.1-2.7V19.8c0-2-0.1-3.6-0.3-4.7c-0.3-2-1-3.7-2-5.1
	h27.5v14c-1.8-1.1-3.3-1.9-4.6-2.4c-1.3-0.5-3.1-0.7-5.3-0.7h-4.3v7.7h21.8v14c-1-0.6-1.7-1.1-2.4-1.4c-0.6-0.3-1.3-0.7-2-0.9
	c-1.4-0.5-3.3-0.7-5.5-0.7H46.1z M125.9,31.9c-0.6,13.6-7.9,31.4-16.7,59.8c-4,13.1-9.9,31.7-17.3,39.8c-6.9,7.6-13.4,5.8-21.4,5.8
	c1-2.2,1.6-4.9,2-8.1c0.2-1.8,0.3-4.1,0.3-7.1V24.8c0-1.4,0-2.7-0.1-4c-0.1-1.3-0.1-2.3-0.2-3.2c-0.3-3-1-5.5-2-7.7h29
	C122.5,9.9,126.3,22,125.9,31.9L125.9,31.9z M83.6,21.3V122c3-3.7,5.3-8.7,7.4-14.2c8-23.8,16.2-46.9,21.3-68.2
	c2.2-9.1,3.8-17.4-9.3-18.2C96.2,21.3,90.5,21.4,83.6,21.3z M183.3,9.9l-43.9,115h62.3c2.5,0,4.7-0.2,6.5-0.7
	c1.8-0.5,3.7-1.3,5.7-2.5v13.6h-91.4l44.3-115.1h-16.2c-0.9,0-1.8,0.1-2.7,0.2c-0.9,0.1-1.8,0.4-2.8,0.7c-1.3,0.4-3,1.1-5.1,2.2V9.9
	L183.3,9.9L183.3,9.9z M259.1,23.5c0-0.8-0.2-1.4-0.8-2c-0.5-0.5-1.2-0.8-2-0.8h-19.7v7.2h19.7c0.7,0,1.4-0.3,1.9-0.8
	C258.8,26.7,259.1,24.3,259.1,23.5z M268.1,24c0,1-0.1,1.9-0.2,2.8c-0.2,0.9-0.5,1.9-0.9,2.9c-0.4,1-1,1.9-1.6,2.7
	c-0.6,0.8-1.2,1.5-1.9,2.1c-1.6,1.4-3.4,2.4-5.5,2.8c-0.7,0.1-1.6,0.2-2.8,0.2h-18.5v87.9c0,0.9,0,1.8,0,2.6c0,0.8,0.1,1.5,0.2,2.1
	c0.3,1.9,1,3.6,1.9,5.3h-15.4c1-1.4,1.7-3.1,2-5.1c0.1-0.6,0.1-1.3,0.2-2.1c0.1-0.9,0.1-1.8,0.1-2.7V19.8c0-2-0.1-3.6-0.3-4.7
	c-0.4-2-1-3.7-2-5.1h31.7c1.7,0,3.4,0.4,5.4,1.1s3.4,1.7,4.5,2.9c1.1,1.2,1.8,2.6,2.4,4.2C267.9,19.7,268.1,22.5,268.1,24L268.1,24z
	 M404.5,137.3h-41.3c1-1.4,1.6-3.1,2-5.1c0.1-0.6,0.1-1.3,0.2-2.1c0.1-0.9,0.1-1.8,0.1-2.7l0.4-107.6c0-2-0.1-3.6-0.3-4.7
	c-0.3-2-1-3.7-2-5.1h16.3c-2,3.6-3,6.9-3,9.9l-0.4,106.6h18.2c2.9,0,6.2-1,9.9-3.1V137.3z M402.7,112.4h-15.4c1-1.4,1.7-3.1,2-5.1
	c0.1-0.5,0.1-1.3,0.2-2.1c0.1-0.9,0.1-1.8,0.1-2.7V19.8c0-2-0.1-3.6-0.3-4.7c-0.4-2-1-3.7-2-5.1h15.4c-0.9,1.6-1.5,3.2-1.8,4.9
	c-0.3,1.6-0.4,3.3-0.4,5v82.7c0,0.9,0,1.8,0.1,2.6c0,0.8,0.1,1.5,0.2,2C401.1,109,401.7,110.8,402.7,112.4L402.7,112.4z
	 M441.9,110.2l-0.1-1.5l-0.4-1.5l-16.7-48l-0.3,68.2c0,0.9,0,1.8,0.1,2.6c0,0.8,0.1,1.5,0.2,2c0.3,1.9,1,3.7,1.9,5.3h-15.4
	c1-1.4,1.7-3.1,2-5.1c0.1-0.6,0.1-1.3,0.2-2.1c0.1-0.9,0.1-1.8,0.1-2.7l0.3-107.6c0-2-0.1-3.6-0.3-4.7c-0.4-2-1-3.7-2-5.1h17.6
	c-0.4,1-0.5,2.1-0.5,3.1c0,0.9,0,23.3,0.1,23.6l13.2,36.1V19.8V19v-0.6c0-1.5-0.1-2.6-0.2-3.4c-0.4-2-1-3.7-2-5.1H455
	c-0.9,1.6-1.5,3.2-1.8,4.8c-0.1,0.8-0.2,1.6-0.3,2.5c-0.1,0.8-0.1,1.7-0.1,2.6v120.3c0,0.9,0,1.8,0.1,2.5c0,0.8,0.1,1.5,0.2,2.1
	c0.3,1.9,1,3.7,1.9,5.3h-15.4c1-1.3,1.7-3,2-5.1c0.2-1.2,0.2-2.8,0.2-4.8L441.9,110.2L441.9,110.2z"/>
</svg>
