<?xml version="1.0" encoding="utf-8"?>
<!-- Generator: Adobe Illustrator 18.0.0, SVG Export Plug-In . SVG Version: 6.00 Build 0)  -->
<!DOCTYPE svg PUBLIC "-//W3C//DTD SVG 1.1//EN" "http://www.w3.org/Graphics/SVG/1.1/DTD/svg11.dtd">
<svg version="1.1"
	 id="svg2" sodipodi:docname="Pink Floyd logo.svg" inkscape:version="0.91 r13725" xmlns:sodipodi="http://sodipodi.sourceforge.net/DTD/sodipodi-0.dtd" xmlns:rdf="http://www.w3.org/1999/02/22-rdf-syntax-ns#" xmlns:inkscape="http://www.inkscape.org/namespaces/inkscape" xmlns:svg="http://www.w3.org/2000/svg" xmlns:dc="http://purl.org/dc/elements/1.1/" xmlns:cc="http://creativecommons.org/ns#"
	 xmlns="http://www.w3.org/2000/svg" xmlns:xlink="http://www.w3.org/1999/xlink" x="0px" y="0px" viewBox="0 0 469.2 269"
	 enable-background="new 0 0 469.2 269" xml:space="preserve">
<title  id="title4236">Pink Floyd logo</title>
<sodipodi:namedview  inkscape:pageshadow="2" inkscape:window-height="705" inkscape:current-layer="layer1" inkscape:pageopacity="0.0" fit-margin-right="0" fit-margin-bottom="0" inkscape:window-y="-8" inkscape:window-width="1366" inkscape:window-maximized="1" inkscape:window-x="-8" inkscape:document-units="px" bordercolor="#666666" id="base" borderopacity="1.0" pagecolor="#ffffff" showgrid="false" inkscape:cx="332.24421" fit-margin-left="0" inkscape:zoom="0.98994949" fit-margin-top="0" inkscape:cy="189.83272">
	</sodipodi:namedview>
<g id="layer1" transform="translate(11.87615,38.287265)" inkscape:groupmode="layer" inkscape:label="Capa 1">
	<path id="path4249" inkscape:connector-curvature="0" fill="#FFFFFF" d="M353.1-21c0-0.7-0.4-0.8-1.9-0.8c-3.3,0-5.3,1.3-4.6,3
		C347.1-17.8,353.1-19.8,353.1-21z M284.3,143.5c-1.2-5,0.8-23.4,3.2-28.9c0.9-2.2,1.8-2.7,4.5-2.7c2,0,2.1,0,3,2.2
		c1.5,3.5,2,5.8,2,9.1c0,4.6-1,8-4.8,15.4c-2.7,5.5-3.5,6.7-4.4,6.7c-0.6,0-1.5,0.1-2,0.3C285,146,284.8,145.7,284.3,143.5
		L284.3,143.5z M290.7,151.6c4.2-4.3,6.8-8.1,9.6-13.9c5.2-10.6,6.1-20.1,2.5-27.2c-2.4-4.8-9.2-7.1-14.1-4.8
		c-5.5,2.6-10.6,11.8-14.1,25.7c-1.3,5.1-1.6,12.8-0.6,16.2c1,3.7,6.5,7.2,11.6,7.3C287.4,154.9,287.7,154.6,290.7,151.6
		L290.7,151.6z M79.1,165.3l1.9-0.8l0.5-14.1c0.5-12.2,0.7-15.1,2-21.6c2.2-11.6,2.6-15.5,2.3-22.7c-0.2-7-0.9-9.6-3.4-13.5
		c-1.3-2-3.2-2.5-4-1c-0.7,1.3-3.7,22.8-6.2,44.4c-1.7,15-0.9,25.5,2.2,28.9C75.8,166.4,76.5,166.5,79.1,165.3z M217.7,178.7
		c0.8-0.6,1.1-1.4,1.3-4.4c0.5-5.1,1.6-10.8,2.7-13.8c1.9-5.1,2.8-11.9,3.5-26.4c0.5-10.5,2-16.9,4.7-20.5c1.3-1.7,1.3-1.8,1-6.3
		l-0.3-4.6l4-2.8c4.9-3.4,12.3-7.7,13.9-8.1c3.3-0.7,7.9-2.3,9.3-3.1c1.4-0.9,1.5-1.2,1.5-3.2c0-3.4-0.3-3.8-2.6-3.8
		c-2.6,0-5.6,0.9-13.5,4.1c-3.5,1.4-6.9,2.5-7.5,2.5c-1.1,0-1.1-0.1-0.8-3.9c0.2-2.2,1.1-7.2,2.2-11.4C239.9,63,240,62.4,240,58
		c0.1-7.2,0.7-10,4-18.9c1.8-4.7,3.6-9.8,4-11.5c0.9-3.5,1.9-4.6,8.7-10.1C271.6,5.7,286.6-1.2,303.6-4c3.2-0.5,6.7-1.4,7.8-1.9
		c1.1-0.5,7.6-2.8,14.4-5.1c16.2-5.4,17.7-6,18-7.9c0.1-0.8,0.1-1.5-0.1-1.5c-0.7,0-15.4,2.9-19.4,3.8
		c-21.2,4.8-43.5,11.8-65.1,20.4c-6.2,2.5-11.9,4.6-12.7,4.6l-1.5,0.2l-0.8-3.9c-1.5-7.1-3.6-9.3-7.2-7.6c-0.7,0.3-1.3,1-1.4,1.5
		c-0.1,0.5-0.6,3.2-1.2,5.9c-1.3,6.9-2.3,9.8-3.6,11c-2.9,2.7-15.5,7.9-22.8,9.5c-2.9,0.6-4.3,1.3-8.8,4.3
		c-7.2,4.7-11.5,8.9-13.4,12.8c-1.8,3.7-1.5,4.5,1.4,4.8c1.6,0.1,2.4-0.1,4.2-1.5c4.4-3.2,12.7-8.1,21.6-12.7l9-4.6l1.3,1
		c6.4,5.1,6.1,22.9-1.1,58.3c-1,5-1.9,9.2-1.9,9.3c0,0.1-1.2,0.9-2.6,1.9c-3.7,2.4-7.5,6-8.2,7.7c-0.3,0.8-0.5,1.9-0.3,2.6
		c0.4,1.4,1.9,1.6,5,0.5c1.1-0.4,2.6-0.7,3.4-0.7h1.4l-0.3,6.5c-0.6,12.3-1.7,30.6-2.4,39.9c-0.4,5.2-0.9,12.5-1.2,16.2
		c-0.4,5.2-0.4,6.9,0.1,7.4C215.8,179.6,216.5,179.6,217.7,178.7L217.7,178.7z M131.8,178.8c1.1-0.5,2.5-3.3,2-4.1
		c-0.5-0.9-2.3-8.2-3-12.6c-0.9-5.5-1.2-20.5-0.6-27.1c1.3-13.9,6-43.5,8.7-54c6.3-24.5,15.7-53,25.5-77c2.5-6.1,8.4-18.1,14.3-28.8
		c1.5-2.7,3.5-6.6,4.5-8.6c1.8-3.6,1.8-3.7,0.9-4.4c-1.4-1-2-0.8-3.6,1.3c-5.5,7.5-14.2,24.9-22.7,45.1
		c-12.9,30.7-22.3,61.3-27.9,91.1c-3.1,16.4-4.4,26.3-4.4,33.4c0,9-1,16.8-2.3,17.6c-0.2,0.1-1.4-1.1-2.6-2.7
		c-6.8-9-10-21.4-10.9-42c-0.3-7.2-0.4-7.5-1.6-8.8c-1.7-1.9-4-2.2-8.2-1.2c-3.2,0.7-3.6,1-4.4,2.5c-3.5,6.2-4.8,17.9-4.8,43.5
		c0,17.6,0.2,20.3,2.1,24c1,2,1.2,2.1,3,2.1c4-0.1,7.1-3.7,8.4-10c0.8-3.9,0.9-16.8,0.2-23.6c-0.3-2.6-0.4-5.5-0.4-6.5
		c0.1-1.8,0.5-1.2,5.9,9.5c3.1,6.2,5.9,11.8,6.1,12.5c1,3.1,11.6,27.4,12.6,28.6C129,179.5,130.3,179.6,131.8,178.8L131.8,178.8z
		 M49.6,178.2l1.2-1.2l0.2-37.9c0.1-20.8,0.3-38.5,0.5-39.2c0.2-1,0.9-1.6,2.5-2.4c2.1-1,2.2-1.2,3.9-5.4c1.3-3.4,2.2-5,4.1-6.9
		c2.6-2.8,4.8-5.9,8.3-11.8c1.3-2.2,3.2-4.9,4.2-6.1c1.9-2.1,18.8-26.1,22-31.2c0.9-1.4,1.9-3.7,2.2-4.9c0.3-1.3,2-5.9,3.7-10.1
		l3.1-7.8l0.1-7.3c0.1-7.3,0.1-7.3-1.4-10.4c-2-4.3-5.3-7.5-8.9-8.9C81.9-18.3,64.7-15.5,44-4.9c-9.1,4.6-13.8,7.7-21.8,14
		C8.6,19.7,4.6,22.8,3.6,23.3c-0.6,0.3-1.5,1.5-2,2.6c-0.6,1.2-3.3,4.6-6.2,7.6c-5.5,5.9-6.9,8-7.1,10.9l-0.1,1.8l2.8-0.1
		C-4.6,46-1,43.9,4.4,38.5c3.8-3.8,5.5-5.2,10.8-8.4c5.1-3,7.3-4.7,10.8-8.2c7.6-7.5,17-13.9,28.7-19.8C66-3.4,73.7-6,83.2-7.3
		c5.6-0.8,10,0.2,12.3,2.7c1.6,1.8,2.8,5.4,3.1,9.3c0.2,3.3,0.1,4.3-1,7.6c-1.7,5-5.1,12.1-8.7,18.1c-4,6.6-15.2,22.7-17.9,25.7
		c-1.2,1.3-4.4,5.6-7.2,9.4c-5.2,7.3-8.6,11.5-9.4,11.5c-0.3,0-0.3-5.8-0.1-15.2c0.3-15,0-23-1.3-30l-0.5-3l-1.9,0.1l-1.9,0.1
		l-0.3,3.3c-0.8,7.8-2.3,31.2-2.8,44.1c-0.5,13.2-0.6,14-1.7,15.8c-1.4,2.4-1.4,3.1,0.2,6.3l1.2,2.6l0.3,38.2
		c0.3,39.9,0.4,41.4,2.3,40.4C48.1,179.7,49,178.9,49.6,178.2L49.6,178.2z M243.4,191.2h2.4l9.7-9.5c7.7-7.5,11-10.4,15.5-13.5
		l5.8-4l-0.1-1.9l-0.1-1.9l-2.6,0.1c-5.8,0.3-12,3.5-21.2,11.1c-5.6,4.7-7.3,5.8-7.8,5.4c-0.2-0.2,0-3.5,0.3-7.5
		c1.2-15.9,3.6-30.3,7.8-45.8c1.8-6.6,2.1-8.7,2.1-12.1c0-4-0.1-4.2-1.5-5.8c-2.2-2.6-3.9-3.2-7.9-3.3c-4.2,0-7.3,1.3-9.1,3.7
		c-2.1,3-0.9,8.2,2.7,11.6c1.4,1.3,1.5,0.5-0.3,19.3c-3,32.7-3.6,43.9-2.8,47.7c0.7,3.3,3.1,7.2,4.1,6.8
		C240.7,191.3,242.1,191.2,243.4,191.2L243.4,191.2z M352.8,164c0.2-2.3,0.6-7.5,1-11.7c0.9-9.8,2-22.4,2.7-30.6
		c0.4-5.8,0.6-6.8,1.6-8.1c3.8-5,13.4-4.8,19.3,0.4l2.2,2l-0.2,5.2c-0.2,4.2-0.5,6-1.7,9.5c-3.6,10.6-11.6,23.7-20.7,34
		C352.9,169.3,352.5,169.2,352.8,164L352.8,164z M343.7,191.1c0.2-0.6,7.7-11.9,8-12.2c0.2-0.1,2.1-2.4,4.3-4.9
		c13.1-15.3,23.1-31.8,27.7-45.7c1.9-5.7,2-6.4,1.7-9.5c-0.6-6.5-3.1-10.9-7.7-13.2c-2.5-1.2-3.1-1.3-8.1-1.3
		c-5.9,0-9.5,0.8-15.7,3.6l-3.2,1.4v5.7c0,13.6-1.9,23.3-5.3,27c-0.9,1-1,1.4-0.7,12c0.2,6,0.4,14.1,0.6,18l0.3,7.1l-3.4,3.7
		c-3.5,3.8-4.3,5.6-3.6,8.1c0.3,1.2,0.4,1.2,2.5,0.9C342.5,191.7,343.6,191.3,343.7,191.1L343.7,191.1z M320.9,197.4
		c0.9-1.1,1-1.9,1.3-10.2c0.3-9.5,1.1-15.2,2.7-19.9c0.9-2.4,1-3.9,1.1-11.1c0.1-9.4,0.6-11.5,4-18.4c9.2-18.3,23.2-37.7,38.5-53.2
		c3.4-3.5,7.7-8,9.5-10.2c4.2-4.9,11.6-11.4,26.1-23c6.3-5,12.2-9.8,13.1-10.6c3-2.8,13.4-10.7,18.6-14.3c7.7-5.3,13.6-8.1,20.1-9.5
		c1.1-0.2,1.3-0.5,1.3-2c0-2.6-0.7-3.5-2.7-3.5c-4.4,0-10.8,3.2-19.9,9.9c-3.5,2.6-8.5,6.2-11.1,8.1c-8.6,6.2-11.4,8.4-12,9.5
		c-0.3,0.6-2.5,2.7-4.9,4.6c-14.5,12-25.1,21.8-42.6,39.4c-8.1,8.1-15.3,15.1-16.1,15.6c-0.9,0.5-1.7,1.5-2,2.5
		c-1.1,3.3-3.1,6.3-9.4,14.3c-5.3,6.6-7,9.4-8.6,13.7c-1.1,3-5.1,10.7-6.7,12.8c-0.5,0.7-0.8,0.8-1.2,0.4c-0.9-0.9,0.3-6.9,3-14.5
		l2.4-7.1l-0.8-5.6c-0.4-3.1-1.1-6.6-1.5-7.8c-1.6-4.8-4.6-7.4-9.1-7.9c-2.8-0.3-2.8-0.4-4,6.4c-1.1,5.9-1.1,19.1,0,27.3
		c1.1,8.6,3.5,22.1,4,23.1c0.8,1.5,0.5,5.2-1.1,13.2c-3.4,16.3-3.2,22.5,0.5,27.9l1.2,1.8l2.6-0.3
		C319.3,198.7,320.2,198.3,320.9,197.4L320.9,197.4z M198,230.3c0.9,0,0.2-4.1-1.1-6.4c-1.4-2.4-11.2-26.2-15-36.5
		c-7.4-19.7-11.3-36.1-11.9-50l-0.3-6.8l2.3-3.1c6.1-8.3,12.4-13.5,34.5-28.5c9.4-6.4,10.3-7.3,9-8.7c-2.2-2.2-9.9,2-29.7,16.3
		c-9.3,6.7-15.4,10.8-18.6,12.5l-2.4,1.3l-0.3-4.5c-0.8-10.5-3.6-15.7-9.6-17.5c-5.2-1.6-6.5-0.3-8.1,8.3c-2.7,14.5-4,30.4-4.8,56.5
		c-0.5,15.8-0.5,16.7,0.3,17.3c1.8,1.4,4.1,1.4,5.9,0.1c0.7-0.5,0.9-1.9,1.3-9.4c0.9-16.8,2.8-24.4,7.7-30.7c1-1.3,2.5-0.6,2.9,1.2
		c1.9,9.5,11.4,37.3,15.4,45.3c0.8,1.5,1.7,3.8,2.1,5.1c0.4,1.2,3.3,8.2,6.5,15.3c10.4,23.4,10.5,23.5,12.3,23
		C196.9,230.4,197.6,230.3,198,230.3z"/>
</g>
</svg>
