<?xml version="1.0" encoding="utf-8"?>
<!-- Generator: Adobe Illustrator 18.0.0, SVG Export Plug-In . SVG Version: 6.00 Build 0)  -->
<!DOCTYPE svg PUBLIC "-//W3C//DTD SVG 1.1//EN" "http://www.w3.org/Graphics/SVG/1.1/DTD/svg11.dtd">
<svg version="1.1" id="Layer_1" xmlns="http://www.w3.org/2000/svg" xmlns:xlink="http://www.w3.org/1999/xlink" x="0px" y="0px"
	 viewBox="0 0 595.3 378.8" enable-background="new 0 0 595.3 378.8" xml:space="preserve">
<g>
	<path fill="#FFFFFF" d="M582,60.8c4.8,0,7.9-6.6,8-16.8c0.1-9.9-4.9-21-12.9-29.1C570.8,8.5,563.6,5,556.7,5
		c-8.1,0-19.8,2-29.2,11.5c-6.3,6.3-10.3,14.9-12.2,25.6L497.6,78c-0.2-27.5-0.4-58.1-0.4-59.2c0-4.3-3.2-9.1-7.4-9.1
		c-1.9,0-2.1,0.1-10.1,6.4c-10.7,8.3-32.1,25-45.2,30.5l4.3-20.2c0.3-0.7,0.7-1.3,1.1-2c1.5-2.7,3.3-6.7,1.3-10.1
		c-1.1-1.9-3.2-3.1-5.6-3.1c-0.3,0-0.6,0-0.7,0c-8.2,0.7-20.8,1-38.6,1c-9.9,0-19.5-0.1-27.2-0.2c-5.1-0.1-9.2-0.1-12-0.1
		c-9.9,0-22.7,6.1-32.7,15.4c-3.9,3.6-7.2,7.7-10,12v-19c0.1-0.1,0.2-0.3,0.2-0.4c0.5-0.8,0.8-1.3,1-1.7c0.9-1.9,0.9-3.9-0.2-5.6
		c-1.1-1.9-3.4-3-5.9-3c-1.2,0-56.8,0.1-59.2,0.1h-0.8l-0.8,0.3c-1.4,0.6-2.6,1.8-3.2,3.3c-0.1,0.2-0.1,0.3-0.2,0.5
		c-0.2-0.6-0.4-1.2-0.8-1.8c-1.1-1.6-2.9-2.5-4.9-2.5c-0.3,0-0.7,0-0.9,0.1c-3.3,0-25.8-0.1-41.3-0.1c-15.2,0-15.4,0-16,0.2
		c-2,0.4-3.7,2-4.3,4.1c-0.7,2.3-0.1,4.7,1.5,6.3c2.3,2.4,7.2,9.5,7.2,11.6c-0.1,2.2-3,14.6-4.9,22.8c-2,8.5-3.7,15.8-4,18.4
		c-0.1,0.8-0.4,2.5-0.7,4.7c-0.1,0.3-0.1,0.7-0.2,1C171.4,55,159.4,37,140.1,25.3C122.5,14.6,103,11.8,89.7,11.2
		c-1.1,0-2.3-0.1-3.4-0.1C46.9,11.1,14.6,38,7.7,76.6c-2.7,15.3,2.9,25.9,8,32.1c2.9,3.4,6.1,6.1,9.2,8l29.4,38.4
		c0.9,38.9,2,101.5,0.3,136.7c-0.7,14.8-4.8,20.1-8.1,24.3c-0.4,0.5-0.8,1.1-1.2,1.6c-1.3,1.8-1.5,4-0.4,6.1
		c1.4,2.8,5.5,5.4,8.6,5.4c0.1,0,0.1,0,0.2,0c18.9,12.4,64.5,39.2,66.9,39.9c3.1,0.8,5.2-0.9,5.2-0.9c13.3-16.4,43.3-29.2,45.8-31.1
		c2.5-1.9-0.3-6.1,2.2-6.1c2.5,0,42.9,0.6,44.2,0.5c1.3-0.2,3.4-1.6,2.9-3c-0.5-1.4-3.2-5.6-4.8-10.2c7.5,5.6,25.4,18,53.5,18
		s39.8-9.6,54.3-20.6c12.6,13.4,24.3,20.3,41.5,20.3s24.6-5.3,37.5-13.6c2.2,19.5-3.7,34.8-5.9,39.3s-6.2,8.3-7,11.8s3.5,5.3,5,5.3
		c1.4,0,3.8-0.8,5.6-3.2c7.7-10,35.8-27.9,49.3-36.8c5.4-3.6,10.2-9.6,10.2-9.6H508l67.6-53.4c0.5,0,0.8,0,0.9,0
		c2.2,0,4.1-1.3,5.2-3.5c1.1-2.3,1.1-4.7-0.2-6.4c-0.1-0.1-0.3-0.3-0.6-0.7c-5.6-6.2-8.9-12.3-9.2-16.7c-1-18.6-1.1-132.6-1.1-173.6
		l10.2-14.3C581.3,60.7,581.6,60.8,582,60.8L582,60.8z M250.4,14.4c0,0,58-0.1,59.2-0.1s2.8,0.6,2,2l-0.1,0.1
		c-0.4,0.8-2.1,3.3-3.9,6.6c0,0,0,0,0,0.1c-0.2,0.5-0.5,0.9-0.7,1.4c0,0,0,0.1-0.1,0.1c-0.2,0.5-0.5,1-0.7,1.5
		c0,0.1-0.1,0.1-0.1,0.2c-0.2,0.5-0.4,1-0.6,1.5c0,0.1-0.1,0.2-0.1,0.3c-0.2,0.5-0.4,1-0.6,1.5c0,0.1-0.1,0.2-0.1,0.3
		c-0.2,0.5-0.3,0.9-0.5,1.4c0,0.1-0.1,0.3-0.1,0.4c-0.1,0.5-0.3,0.9-0.4,1.4c0,0.2-0.1,0.3-0.1,0.5c-0.1,0.4-0.2,0.9-0.3,1.3
		c0,0.2-0.1,0.3-0.1,0.5c-0.1,0.5-0.1,0.9-0.2,1.4c0,0.2-0.1,0.3-0.1,0.5c-0.1,0.6-0.1,1.2-0.1,1.8c0,9.7,0.3,124.9,0.3,128.5
		c0,0,1.4,14.7,4.5,18.3c2.4,2.9-2,2.7-5.5,4.2c-20.1,8.6-27,13-38.6,21.6c-0.3,0.3-0.7,0.5-1,0.7c-0.1,0.1-0.2,0.1-0.3,0.2
		c-0.2,0.1-0.4,0.3-0.6,0.4c-0.1,0.1-0.2,0.1-0.3,0.2c-0.2,0.1-0.3,0.2-0.5,0.3c-0.1,0.1-0.2,0.1-0.3,0.2c-0.1,0.1-0.3,0.1-0.4,0.2
		c-0.1,0-0.2,0.1-0.3,0.1c-0.1,0.1-0.3,0.1-0.4,0.2c-0.1,0-0.1,0-0.2,0.1c-0.2,0.1-0.4,0.1-0.5,0.1l0,0c-0.2,0-0.3,0-0.4,0
		c-0.2,0-0.3,0-0.4-0.1l0,0c-0.1,0-0.3-0.1-0.4-0.2l-0.1-0.1c-0.1-0.1-0.1-0.1-0.2-0.2l-0.1-0.1c-0.1-0.1-0.1-0.1-0.2-0.2
		c0-0.1-0.1-0.1-0.1-0.2c0-0.1-0.1-0.2-0.1-0.3c0-0.1-0.1-0.1-0.1-0.2c0-0.1-0.1-0.2-0.1-0.3c0-0.1,0-0.1-0.1-0.2
		c0-0.1-0.1-0.3-0.1-0.4c0-0.1,0-0.1,0-0.2c0-0.2-0.1-0.4-0.1-0.6L254.5,28c0-5.6-3.8-9.5-4.4-10.7C249,15,250.4,14.4,250.4,14.4
		L250.4,14.4z M244.9,19.9c0.2-0.4,0.4-1.2,0.6-2.1c0.1,0.5,0.3,0.9,0.5,1.4c0.3,0.6,0.7,1.1,1.1,1.8c1.1,1.6,2.8,4,2.8,6.9
		l0.2,20.3L244.9,19.9C244.8,20.1,244.8,20,244.9,19.9L244.9,19.9z M182.6,271c0,0.1,0,0.3-0.1,0.4c0,0.1,0,0.1-0.1,0.2
		c0,0.1-0.1,0.2-0.1,0.3l-0.1,0.1c-0.1,0.1-0.1,0.1-0.2,0.2l-0.1,0.1c-0.1,0.1-0.2,0.1-0.3,0.2h-0.1c-0.1,0.1-0.3,0.1-0.4,0.1H181
		c-0.1,0-0.2,0-0.3,0.1c-0.1,0-0.1,0-0.2,0c-0.1,0-0.2,0-0.3,0c-0.1,0-0.1,0-0.2,0c-0.2,0-0.4,0-0.7,0h-0.1c-0.2,0-0.4,0-0.7-0.1
		c-0.2,0-0.4,0-0.7-0.1h-0.1c-0.2,0-0.4,0-0.6,0c-2.3,0-48.3,0.1-48.3,0.1s0,0-0.1,0l0,0h-0.1h-0.1c-0.1,0-0.1,0-0.2,0h-0.1
		c-0.1,0-0.2,0-0.3,0c0,0,0,0-0.1,0c-0.1,0-0.3-0.1-0.4-0.1l0,0c-0.1-0.1-0.3-0.2-0.4-0.3c0,0-0.1,0-0.1-0.1
		c-0.1-0.1-0.3-0.3-0.4-0.5l-0.1-0.1c-0.2-0.2-0.3-0.4-0.4-0.7c-1.1-2.3,2.5-4.7,2.1-7.9c-0.3-2.3-8.6-73.2-8.6-73.2
		s-0.2-3.9-1.9-5.9c-0.1-0.1-0.2-0.1-0.3-0.1l0,0c-0.1,0-0.3,0-0.5,0.1c-0.1,0-0.1,0.1-0.2,0.1c-0.1,0.1-0.3,0.1-0.5,0.2
		c-0.1,0-0.2,0.1-0.3,0.2c-0.2,0.1-0.3,0.2-0.5,0.3c-0.1,0.1-0.2,0.1-0.3,0.2c-0.2,0.1-0.4,0.2-0.6,0.4c-0.1,0.1-0.2,0.2-0.4,0.2
		c-0.2,0.1-0.4,0.3-0.7,0.5c-0.1,0.1-0.2,0.2-0.3,0.2c-0.3,0.2-0.5,0.4-0.8,0.6c-0.4,0.3-0.8,0.6-1.2,0.9c-2.9,2-6.2,3.6-6.2,7.4
		c0,3.8,0,66.5,0,66.5s1.1,8.7,4.5,11.3c2.5,1.9,4.2,3,6,6c1.7,2.6-3,5.3-6,6.8c-14.1,6.8-38.5,22.1-55.4,39
		c-0.1,0.1-0.3,0.2-0.5,0.2c-1.6,0-5.7-2.7-4.5-4.3c3.4-4.7,9.3-10.2,10.2-28.4c2.7-53.6-1.2-168.3-1.2-172.8
		c0.1-11.7-2.5-16.6-2.5-16.6S54,100.6,57,99c2.2-1.1,31.1-13.5,42.5-24.4c0.1-0.1,0.3-0.3,0.4-0.4l0.1-0.1c0.1-0.1,0.2-0.2,0.3-0.3
		l0.1-0.1c0.1-0.1,0.2-0.2,0.3-0.2l0.1-0.1c0.1-0.1,0.2-0.1,0.3-0.2l0.1-0.1c0.3-0.2,0.5-0.3,0.8-0.4h0.1c0.1,0,0.2-0.1,0.2-0.1h0.1
		c0.1,0,0.1,0,0.2,0h0.1c0.1,0,0.2,0,0.4,0.1c0,0,0,0,0.1,0c0.1,0.1,0.2,0.1,0.3,0.2l0,0c0.1,0.1,0.2,0.2,0.2,0.4v0.1
		c0.1,0.2,0.1,0.4,0.2,0.6c0.8,4.3-0.1,60.2,0,63.5c0,0.3,0.1,0.5,0.1,0.6c0,0,0,0.1,0.1,0.1c0.1,0.2,0.2,0.3,0.3,0.4l0,0
		c0.1,0.1,0.3,0.2,0.5,0.2h0.1c0.2,0,0.4,0.1,0.6,0.1l0,0h0.1c0.1,0,0.3,0,0.4,0c0.1,0,0.1,0,0.2,0c0.1,0,0.3,0,0.4-0.1
		c0.1,0,0.1,0,0.2,0c0.1,0,0.3-0.1,0.4-0.1c0.1,0,0.1,0,0.2,0c0.2-0.1,0.4-0.1,0.5-0.2h0.1c0.1,0,0.3-0.1,0.4-0.1
		c0.1,0,0.1,0,0.2-0.1c0.1,0,0.2-0.1,0.3-0.1h0.1c0.1,0,0.2-0.1,0.3-0.1c0.1,0,0.1,0,0.2-0.1c2.9-0.8,20.9-16.6,18.4-39.1
		c-0.1-0.7-0.2-1.4-0.3-2c0-0.2-0.1-0.5-0.1-0.7c-0.1-0.4-0.2-0.9-0.3-1.3c-0.1-0.3-0.1-0.5-0.2-0.8c-0.1-0.4-0.2-0.8-0.3-1.2
		c-0.1-0.3-0.2-0.6-0.2-0.8c-0.1-0.4-0.2-0.7-0.3-1.1c-0.1-0.3-0.2-0.6-0.3-0.9c-0.1-0.4-0.3-0.7-0.4-1.1c-0.1-0.3-0.2-0.6-0.3-0.9
		c-0.1-0.3-0.3-0.7-0.4-1c-0.1-0.3-0.3-0.6-0.4-0.8c-0.2-0.3-0.3-0.7-0.5-1c-0.1-0.3-0.3-0.6-0.4-0.8c-0.2-0.3-0.3-0.6-0.5-1
		c-0.2-0.3-0.3-0.5-0.5-0.8s-0.4-0.6-0.6-1c-0.2-0.3-0.3-0.5-0.5-0.8c-0.2-0.3-0.4-0.6-0.6-0.9c-0.2-0.3-0.3-0.5-0.5-0.8
		c-0.2-0.3-0.4-0.6-0.7-0.9c-0.2-0.2-0.4-0.5-0.5-0.7c-0.2-0.3-0.5-0.6-0.7-0.9c-0.2-0.2-0.4-0.5-0.5-0.7c-0.3-0.3-0.5-0.6-0.8-0.9
		c-0.2-0.2-0.3-0.4-0.5-0.6c-0.3-0.4-0.7-0.7-1-1.1c-0.1-0.1-0.2-0.3-0.4-0.4c-0.5-0.5-0.9-0.9-1.4-1.4c-0.2-0.2-0.3-0.3-0.5-0.5
		c-0.3-0.3-0.6-0.6-1-0.9c-0.2-0.2-0.4-0.4-0.6-0.5c-0.3-0.2-0.6-0.5-0.9-0.7c-0.2-0.2-0.5-0.4-0.7-0.5c-0.3-0.2-0.6-0.5-0.9-0.7
		c-0.2-0.2-0.5-0.3-0.7-0.5c-0.3-0.2-0.6-0.4-0.9-0.6s-0.5-0.3-0.8-0.5c-0.3-0.2-0.6-0.4-0.9-0.6c-0.3-0.2-0.5-0.3-0.8-0.5
		s-0.6-0.3-0.9-0.5c-0.3-0.1-0.5-0.3-0.8-0.4c-0.3-0.2-0.6-0.3-0.9-0.5c-0.3-0.1-0.5-0.3-0.8-0.4c-0.3-0.1-0.6-0.3-0.9-0.4
		c-0.3-0.1-0.5-0.2-0.8-0.3c-0.3-0.1-0.6-0.2-1-0.4c-0.3-0.1-0.5-0.2-0.8-0.3c-0.3-0.1-0.7-0.2-1-0.3c-0.3-0.1-0.5-0.2-0.8-0.2
		c-0.3-0.1-0.7-0.2-1-0.3C95.2,61,95,61,94.7,60.9c-0.4-0.1-0.7-0.2-1.1-0.2c-0.2,0-0.5-0.1-0.7-0.1c-0.4-0.1-0.8-0.1-1.2-0.2
		c-0.2,0-0.4-0.1-0.6-0.1c-0.6-0.1-1.2-0.1-1.8-0.2c-0.2,0-0.3,0-0.5,0c-0.4,0-0.8,0-1.2,0h-0.1c-0.4,0-0.9,0-1.3,0
		c-0.2,0-0.4,0-0.6,0c-0.6,0-1.3,0.1-1.9,0.2C65.6,62.9,45.4,71,41.9,100.2c-0.9,7.6,5.3,11.6,5.3,11.6c0,0.5-0.1,0.8-0.2,1.2
		c0,0.1-0.1,0.2-0.1,0.3c-0.1,0.3-0.2,0.6-0.3,0.9v0.1c-0.2,0.3-0.3,0.5-0.5,0.7c-0.1,0.1-0.1,0.1-0.2,0.2c-0.2,0.2-0.4,0.3-0.6,0.4
		l-0.1,0.1c-0.2,0.1-0.5,0.3-0.8,0.3c-0.1,0-0.1,0-0.2,0.1c-0.2,0.1-0.5,0.1-0.8,0.2c-0.1,0-0.1,0-0.2,0c-0.3,0-0.7,0.1-1,0.1
		c-0.1,0-0.2,0-0.3,0c-0.3,0-0.6,0-0.9,0c-0.1,0-0.2,0-0.2,0c-0.6,0-1.2,0-1.8,0c-0.7,0-1.4,0-2.1,0c-8.3,0-29.2-13.4-24.7-38.8
		c6.6-37,37.5-61.8,74.1-61.8c1.1,0,2.2,0,3.2,0.1c21.4,0.8,70.2,8.7,81.5,62.1c0.2,0.8,0.3,1.7,0.5,2.5c0.2,1.2,0.4,2.4,0.6,3.7
		c0.1,0.5,0.1,1,0.2,1.4c0.2,1.6,0.4,3.3,0.6,5c-1.5,36.3-12.9,40.8-18.1,52.2c0,0,16.4,93.6,17.4,99c4,22.5,9.9,24.5,10.4,28.3
		c0,0.3,0,0.5,0,0.7C182.6,270.9,182.6,270.9,182.6,271L182.6,271z M574.6,53.8C574.5,53.8,574.5,53.8,574.6,53.8
		c-6.5-0.4-8.4,6.4-8.4,7.7s-0.1,164.6,1.1,187.3c0.5,9.4,10.3,19.3,10.7,19.8c0.3,0.4-0.2,2-1,2.5c-0.1,0.1-0.3,0.1-0.4,0.1
		c-1,0-66.7-0.4-66.7-0.4c-1.6,0-2-2.2-0.2-4c9.9-9.9,9.7-24.3,9.9-30c0.1-1.9-0.1-63.6-0.1-64.5s0-2.6-0.5-2.6s-22.6,0.1-23.9,0.1
		c-1.3,0-1.5,0.9-1.5,0.9s1,85.2,1.5,95.7c0.5,10.5,5,11.8,5.5,13.1c0.5,1.3-0.7,2.6-2.1,3.1c-28.9,9.7-56.2,35.3-56.8,35.9
		c-0.6,0.5-3.4,4.5-5.5,4.8h-0.1H436h-0.1h-0.1h-0.1c0,0-0.1,0-0.2,0h-0.1c-0.1,0-0.1,0-0.2-0.1c-0.1,0-0.1,0-0.2-0.1
		c-0.1,0-0.1,0-0.2-0.1c-0.1,0-0.1-0.1-0.2-0.1s-0.1-0.1-0.2-0.1s-0.1-0.1-0.2-0.1c-0.1,0-0.1-0.1-0.2-0.1s-0.1-0.1-0.2-0.1
		l-0.1-0.1c-0.1,0-0.1-0.1-0.2-0.1l-0.1-0.1c0-0.1-0.1-0.1-0.1-0.2l-0.1-0.1c0-0.1-0.1-0.1-0.1-0.2l-0.1-0.1c0-0.1-0.1-0.1-0.1-0.2
		c0,0,0-0.1-0.1-0.1c0-0.1,0-0.1,0-0.2c0-0.1,0-0.1,0-0.2s0-0.2,0-0.2c0-0.1,0-0.1,0-0.2s0-0.2,0.1-0.3v-0.1
		c0.1-0.1,0.1-0.3,0.2-0.4c15.5-24.9,12.8-53.1,11.7-82.6c-12.6,20.2-37.7,37.7-64.9,37.7c-27,0-39.6-11.3-52.4-22.9
		c-9.8,10.3-25.4,23.9-58.5,23.9c-89.4,0-95.1-100.8-95.2-129.4c0-1.2,0-2.4,0-3.7c0-0.3,0-0.6,0-0.9c0-1.2,0.1-2.5,0.1-3.7
		c0-0.1,0-0.2,0-0.3c0-1.2,0.1-2.4,0.2-3.6c0-0.3,0-0.7,0-1c0.1-1.3,0.1-2.5,0.2-3.8c0-0.2,0-0.3,0-0.5c0.1-1.1,0.2-2.3,0.2-3.4
		c0-0.3,0.1-0.7,0.1-1c0.1-1.3,0.2-2.5,0.3-3.8c0-0.2,0-0.4,0.1-0.7c0.1-1.1,0.2-2.2,0.3-3.3c0-0.3,0.1-0.7,0.1-1
		c0.1-1.2,0.2-2.4,0.4-3.6c0-0.3,0.1-0.5,0.1-0.8c0.1-1,0.2-2.1,0.3-3.1c0-0.3,0.1-0.6,0.1-0.9c0.1-1.2,0.3-2.4,0.4-3.5
		c0-0.2,0.1-0.5,0.1-0.7c0.1-1,0.2-2,0.4-2.9c0-0.3,0.1-0.5,0.1-0.8c0.1-1.1,0.3-2.2,0.4-3.3c0-0.2,0.1-0.4,0.1-0.6
		c0.1-1,0.3-1.9,0.4-2.8c0-0.2,0-0.4,0.1-0.5c0.1-1.1,0.3-2.1,0.4-3.1c0-0.1,0-0.2,0.1-0.3c0.1-1,0.3-1.9,0.4-2.8c0-0.1,0-0.1,0-0.2
		c0.1-1,0.3-1.9,0.4-2.8c0.7-4.5,1.2-7.8,1.4-9.1c0.7-5.4,8.8-36.9,9-41.7c0.2-4.8-7.7-14.1-8.5-15c-0.9-0.9-0.3-2.6,0.5-2.7
		c0.3-0.1,6.7-0.1,15.1-0.1c16.8,0,41.7,0.1,41.7,0.1s0.2-0.1,0.5-0.1c0.8,0,2.3,0.5,0.9,4.2c-0.2,0.4-0.3,0.9-0.5,1.5
		c-0.1,0.3-0.2,0.7-0.3,1c-0.1,0.5-0.3,1-0.4,1.5c-0.1,0.4-0.2,0.8-0.3,1.2c-0.1,0.3-0.2,0.7-0.3,1c-0.1,0.4-0.2,0.8-0.3,1.3
		c-0.1,0.4-0.2,0.8-0.3,1.2c-0.1,0.5-0.2,0.9-0.4,1.4c-0.1,0.4-0.2,0.8-0.3,1.3c-0.1,0.5-0.2,1-0.4,1.5c-0.1,0.4-0.2,0.9-0.3,1.4
		c-0.1,0.6-0.3,1.1-0.4,1.7c-0.1,0.5-0.2,1-0.3,1.4c-0.1,0.6-0.3,1.2-0.4,1.8c-0.1,0.5-0.2,1-0.3,1.6s-0.3,1.3-0.4,1.9
		c-0.1,0.5-0.2,1.1-0.3,1.6c-0.1,0.7-0.3,1.4-0.4,2.1c-0.1,0.6-0.2,1.1-0.3,1.7c-0.1,0.7-0.3,1.4-0.4,2.2c-0.1,0.6-0.2,1.2-0.4,1.8
		c-0.1,0.7-0.3,1.5-0.4,2.3c-0.1,0.6-0.2,1.2-0.4,1.8c-0.1,0.8-0.3,1.6-0.4,2.4c-0.1,0.6-0.2,1.3-0.4,1.9c-0.1,0.8-0.3,1.6-0.4,2.4
		c-0.1,0.7-0.2,1.3-0.4,2c-0.1,0.8-0.3,1.6-0.4,2.4c-0.1,0.7-0.2,1.4-0.4,2.1c-0.1,0.8-0.3,1.7-0.4,2.5c-0.1,0.7-0.2,1.4-0.4,2.1
		c-0.1,0.8-0.3,1.7-0.4,2.6c-0.1,0.7-0.2,1.4-0.3,2.1c-0.1,0.9-0.3,1.7-0.4,2.6c-0.1,0.7-0.2,1.5-0.3,2.2c-0.1,0.9-0.3,1.7-0.4,2.6
		c-0.1,0.7-0.2,1.5-0.3,2.2c-0.1,0.9-0.3,1.8-0.4,2.6c-0.1,0.7-0.2,1.5-0.3,2.2c-0.1,0.9-0.2,1.8-0.4,2.7c-0.1,0.8-0.2,1.5-0.3,2.3
		c-0.1,0.9-0.2,1.8-0.3,2.7c-0.1,0.8-0.2,1.5-0.3,2.3c-0.1,0.9-0.2,1.8-0.3,2.7c-0.1,0.8-0.2,1.5-0.3,2.3c-0.1,0.9-0.2,1.8-0.3,2.7
		c-0.1,0.8-0.2,1.5-0.3,2.3c-0.1,0.9-0.2,1.8-0.3,2.6c-0.1,0.8-0.2,1.5-0.2,2.3c-0.1,0.9-0.2,1.8-0.2,2.6c-0.1,0.7-0.1,1.5-0.2,2.2
		c-0.1,0.9-0.1,1.8-0.2,2.7c-0.1,0.7-0.1,1.4-0.2,2.2c-0.1,0.9-0.1,1.8-0.2,2.7c0,0.7-0.1,1.4-0.1,2.1c-0.1,0.9-0.1,1.8-0.2,2.7
		c0,0.7-0.1,1.3-0.1,2c0,0.9-0.1,1.8-0.1,2.8c0,0.6-0.1,1.2-0.1,1.8c0,1-0.1,2-0.1,3c0,0.5,0,1,0,1.5c0,1.5,0,2.9,0,4.4
		c0,64.8,32.4,78.6,55.6,78.6s34-12.2,34-12.2c-0.1-3.2-0.3-5-0.1-8.2c1.6-27.7,20.9-45.9,44.8-45.9c23.9,0,32.8,17.6,33.8,29.5
		c1,11.8-14.1,21.2-15.9,21.2s-1-5.8-0.8-7.1c0.3-1.3,0-10.6-10.8-10.6s-12.1,14.4-12.1,15.6c0,1.2-1.5,20.7,26.7,20.7
		s32.3-30,32.3-33.8c0-3.8-1.5-34.8-34.8-52.7s-65.3-35-64.8-72.1c0-1.1,0.1-2.2,0.1-3.3c0-0.5,0.1-1.1,0.2-1.6s0.1-1,0.2-1.6
		c0.1-0.7,0.2-1.4,0.3-2.1c0.1-0.3,0.1-0.7,0.1-1c0.1-0.8,0.3-1.6,0.5-2.4c0-0.2,0.1-0.4,0.1-0.6c0.2-0.9,0.4-1.7,0.7-2.5
		c0-0.1,0.1-0.2,0.1-0.3c0.3-0.9,0.5-1.8,0.8-2.6v-0.1c0.3-0.9,0.6-1.8,1-2.7l0,0c0.4-0.9,0.7-1.7,1.1-2.6
		c9.7-21.1,30.8-32.2,42.7-32.2c7,0,22.8,0.3,39.2,0.3c14.4,0,29.2-0.2,38.9-1c0.1,0,0.2,0,0.3,0c0.9,0,3.1,0.4,1.2,4.7l0,0
		c-0.2,0.5-0.5,1.1-0.9,1.8c-12.1,21.5-12.5,49.1-12.5,49.1c0,0.2,0,0.3-0.1,0.5v0.1c0,0.1-0.1,0.2-0.1,0.3c0,0,0,0.1-0.1,0.1
		c-0.1,0.1-0.1,0.2-0.2,0.3c0,0,0,0.1-0.1,0.1c-0.1,0.1-0.2,0.2-0.3,0.3c0,0-0.1,0-0.1,0.1c-0.1,0.1-0.2,0.1-0.3,0.2
		c0,0-0.1,0-0.1,0.1c-0.1,0-0.2,0.1-0.3,0.1h-0.1c-0.2,0-0.3,0.1-0.5,0.1l0,0c-0.1,0-0.3,0-0.4,0h-0.1c-0.1,0-0.3,0-0.4,0H420
		c-0.2,0-0.3-0.1-0.5-0.1h-0.1c-0.1,0-0.2-0.1-0.3-0.2c0,0-0.1,0-0.1-0.1c-0.1-0.1-0.2-0.2-0.3-0.3c-5.1-6.6-21-12.1-33.5-12.1
		s-26.8,6-26.8,15.1s1.9,12.1,35.1,27.2c33.3,15.1,46.1,40.8,49.1,45.7c0.2-26.9,0.2-76.3,0.2-82.6c0-3-6.8-8.1-7.4-8.5
		c-0.6-0.4-6.6-4.5-2.8-5.7c0.5-0.1,1-0.3,1.5-0.5c18.5-6.6,54.3-37.3,55.6-37.3s2.8,2.5,2.8,4.5c0,1.3,0.3,38.8,0.5,68.2l0,0
		c0,2.7,0,5.3,0.1,7.8c0.1,13.3,0.2,23.8,0.2,26.3c0,0.4,0,0.6,0,0.6s6.4,0.1,12.8,0.1c6.4,0,12.8-0.1,12.8-0.5
		c0-0.8-0.2-29.5-0.2-65c0-8.6,1.2-15.8,3.3-21.8h-0.1c6.3-18.5,20.8-25,34.8-25c13.7,0,28.8,18.3,28.7,34.4
		c-0.1,8.8-2.6,12.3-3.4,12.3c-0.1,0-0.1,0-0.1,0c-0.1,0-0.2-0.1-0.2-0.2c-0.1-0.1-0.3-0.3-0.5-0.4c-0.8-0.8-2.2-1.2-3.2-1.4
		C577,53.9,575.9,53.8,574.6,53.8L574.6,53.8z"/>
</g>
</svg>
